<svg width="15" height="22" viewBox="0 0 15 22" fill="none" xmlns="http://www.w3.org/2000/svg">
<path d="M7.45 0C3.33121 0 0 3.33121 0 7.45C0 13.0375 7.45 21.2857 7.45 21.2857C7.45 21.2857 14.9 13.0375 14.9 7.45C14.9 3.33121 11.5688 0 7.45 0ZM2.12857 7.45C2.12857 4.51257 4.51257 2.12857 7.45 2.12857C10.3874 2.12857 12.7714 4.51257 12.7714 7.45C12.7714 10.5151 9.70628 15.1022 7.45 17.9651C5.23629 15.1235 2.12857 10.4832 2.12857 7.45Z" fill="#032868"/>
<path d="M7.45011 10.1105C8.91958 10.1105 10.1108 8.91925 10.1108 7.44978C10.1108 5.9803 8.91958 4.78906 7.45011 4.78906C5.98064 4.78906 4.7894 5.9803 4.7894 7.44978C4.7894 8.91925 5.98064 10.1105 7.45011 10.1105Z" fill="#032868"/>
</svg>
