<svg width="26" height="26" viewBox="0 0 26 26" fill="none" xmlns="http://www.w3.org/2000/svg">
<path d="M23.219 5.26612L16.719 22.0578C16.6547 22.2241 16.5504 22.372 16.4152 22.4883C16.2801 22.6046 16.1183 22.6857 15.9443 22.7245C15.7702 22.7633 15.5893 22.7586 15.4176 22.7107C15.2458 22.6628 15.0885 22.5732 14.9597 22.4499L11.2959 18.9454L9.04903 21.1911C8.97321 21.2667 8.87671 21.3181 8.77169 21.3389C8.66668 21.3596 8.55786 21.3488 8.45899 21.3078C8.36011 21.2668 8.27562 21.1974 8.21616 21.1083C8.15671 21.0193 8.12497 20.9147 8.12495 20.8076V15.912L2.50136 10.5333C2.36183 10.3998 2.26052 10.2314 2.20791 10.0456C2.1553 9.85984 2.15331 9.66336 2.20214 9.47654C2.25098 9.28971 2.34886 9.11933 2.48566 8.98304C2.62245 8.84675 2.79319 8.74951 2.98019 8.70137L21.9385 3.82637C22.1313 3.77699 22.3339 3.78165 22.5242 3.83983C22.7144 3.89802 22.885 4.00747 23.0172 4.1562C23.1493 4.30493 23.238 4.48718 23.2734 4.68297C23.3088 4.87875 23.2896 5.08051 23.2179 5.26612H23.219ZM20.5833 6.50112L8.70128 14.248L10.5809 16.0464L20.5833 6.50112Z" fill="#032868"/>
</svg>
